<svg xmlns="http://www.w3.org/2000/svg">
  <symbol id="icon" viewBox="0 0 24 24" fill="none">
    <path d="M9 9.5H15M9 13.5H12M19.326 6.278C20 7.287 20 8.69 20 11.5C20 14.309 20 15.713 19.326 16.722C19.034 17.1589 18.6589 17.534 18.222 17.826C17.341 18.415 16.158 18.489 14 18.499L12.894 20.711C12.8109 20.8769 12.6832 21.0164 12.5253 21.1138C12.3674 21.2113 12.1855 21.2629 12 21.2629C11.8145 21.2629 11.6326 21.2113 11.4747 21.1138C11.3168 21.0164 11.1891 20.8769 11.106 20.711L10 18.5C7.842 18.49 6.66 18.415 5.778 17.826C5.34109 17.534 4.96595 17.1589 4.674 16.722C4 15.713 4 14.31 4 11.5C4 8.691 4 7.287 4.674 6.278C4.96591 5.84106 5.34106 5.46591 5.778 5.174C6.787 4.5 8.19 4.5 11 4.5H13C15.809 4.5 17.213 4.5 18.222 5.174C18.6589 5.46591 19.0341 5.84106 19.326 6.278Z" stroke="currentColor" stroke-width="1.8" stroke-linecap="round" stroke-linejoin="round"/>
  </symbol>
</svg>