<svg xmlns="http://www.w3.org/2000/svg">
  <symbol id="icon" width="20" height="20" viewBox="0 0 20 20" fill="none">
    <path d="M17.9093 7.56298C18.5813 9.36818 18.6155 11.349 18.0061 13.1763C17.3967 15.0036 16.1804 16.5674 14.5592 17.6078C12.9381 18.6482 11.0098 19.1026 9.09475 18.8955C7.17966 18.6883 5.3931 17.8322 4.03192 16.4692C2.5029 14.9452 1.61618 12.8931 1.55426 10.7352C1.49233 8.57729 2.2599 6.47772 3.69901 4.86855C5.13812 3.25939 7.1393 2.26305 9.29072 2.08457C11.4421 1.90609 13.5801 2.55905 15.2647 3.90907L16.835 2.33798C16.9223 2.25077 17.0258 2.1816 17.1397 2.1344C17.2537 2.08721 17.3758 2.06292 17.4991 2.06292C17.6224 2.06292 17.7446 2.08721 17.8585 2.1344C17.9724 2.1816 18.076 2.25077 18.1632 2.33798C18.2504 2.42519 18.3196 2.52871 18.3667 2.64265C18.4139 2.75659 18.4382 2.87871 18.4382 3.00204C18.4382 3.12537 18.4139 3.24749 18.3667 3.36143C18.3196 3.47537 18.2504 3.5789 18.1632 3.6661L10.6632 11.1661C10.576 11.2533 10.4724 11.3225 10.3585 11.3697C10.2446 11.4169 10.1224 11.4412 9.99911 11.4412C9.87578 11.4412 9.75366 11.4169 9.63972 11.3697C9.52578 11.3225 9.42225 11.2533 9.33505 11.1661C9.24784 11.0789 9.17866 10.9754 9.13147 10.8614C9.08427 10.7475 9.05998 10.6254 9.05998 10.502C9.05998 10.3787 9.08427 10.2566 9.13147 10.1427C9.17866 10.0287 9.24784 9.92519 9.33505 9.83798L11.21 7.96298C10.6816 7.7105 10.0875 7.62929 9.51067 7.73069C8.93385 7.83208 8.40306 8.11102 7.99239 8.52859C7.58172 8.94615 7.31164 9.4815 7.21985 10.0599C7.12806 10.6384 7.21914 11.231 7.48037 11.7552C7.7416 12.2794 8.15996 12.7089 8.67706 12.9839C9.19416 13.2589 9.7842 13.3656 10.3649 13.2891C10.9455 13.2127 11.4878 12.9568 11.9161 12.5573C12.3443 12.1578 12.6372 11.6346 12.7538 11.0606C12.8029 10.8169 12.9468 10.6026 13.1539 10.4649C13.361 10.3273 13.6143 10.2775 13.8581 10.3267C14.1019 10.3758 14.3161 10.5197 14.4538 10.7268C14.5914 10.9339 14.6412 11.1872 14.5921 11.4309C14.3924 12.4147 13.8822 13.3083 13.1365 13.9803C12.3909 14.6524 11.4492 15.0673 10.4501 15.1641C9.45101 15.2608 8.44722 15.0343 7.58649 14.5178C6.72576 14.0014 6.05355 13.2222 5.6688 12.2951C5.28404 11.368 5.20706 10.3419 5.44919 9.36771C5.69132 8.39356 6.23976 7.52286 7.0138 6.88376C7.78784 6.24466 8.7466 5.87091 9.74897 5.81753C10.7513 5.76414 11.7444 6.03393 12.5819 6.5872L13.928 5.24579C12.6636 4.30146 11.1012 3.84442 9.52711 3.95842C7.95307 4.07243 6.47282 4.74985 5.35765 5.86654C4.24247 6.98322 3.56706 8.46439 3.45519 10.0386C3.34332 11.6128 3.80248 13.1746 4.74853 14.4377C5.69458 15.7009 7.06415 16.5808 8.60625 16.9163C10.1483 17.2518 11.7597 17.0203 13.145 16.2642C14.5303 15.5082 15.5967 14.2783 16.1489 12.7999C16.7011 11.3215 16.702 9.69357 16.1515 8.21454C16.1076 8.09891 16.0871 7.97575 16.0911 7.85215C16.0951 7.72856 16.1235 7.60697 16.1746 7.49439C16.2258 7.38181 16.2987 7.28047 16.3892 7.1962C16.4797 7.11193 16.586 7.04639 16.7019 7.00337C16.8179 6.96035 16.9412 6.94068 17.0647 6.94551C17.1883 6.95034 17.3097 6.97957 17.4219 7.03151C17.5341 7.08346 17.635 7.15709 17.7186 7.24817C17.8022 7.33924 17.867 7.44597 17.9093 7.5622V7.56298Z" fill="currentColor"/>
  </symbol>
</svg>