<svg width="12" height="12" viewBox="0 0 12 12" fill="none" xmlns="http://www.w3.org/2000/svg">
<path fill-rule="evenodd" clip-rule="evenodd" d="M2.00608 0.827574C1.68065 0.502137 1.15301 0.502137 0.827574 0.827574C0.502137 1.15301 0.502137 1.68065 0.827574 2.00608L4.82165 6.00016L0.827574 9.99424C0.502137 10.3197 0.502137 10.8473 0.827574 11.1728C1.15301 11.4982 1.68065 11.4982 2.00608 11.1728L6.00016 7.17867L9.99424 11.1728C10.3197 11.4982 10.8473 11.4982 11.1728 11.1728C11.4982 10.8473 11.4982 10.3197 11.1728 9.99424L7.17867 6.00016L11.1728 2.00608C11.4982 1.68065 11.4982 1.15301 11.1728 0.827574C10.8473 0.502137 10.3197 0.502137 9.99424 0.827574L6.00016 4.82165L2.00608 0.827574Z" fill="#474747"/>
</svg>
