<svg xmlns="http://www.w3.org/2000/svg">
  <symbol id="icon" width="20" height="20" viewBox="0 0 20 20" fill="none">
    <path d="M10 2.27344C5.79453 2.27344 2.5 4.19531 2.5 6.64844V14.1484C2.5 16.6016 5.79453 18.5234 10 18.5234C14.2055 18.5234 17.5 16.6016 17.5 14.1484V6.64844C17.5 4.19531 14.2055 2.27344 10 2.27344ZM16.25 10.3984C16.25 11.15 15.6344 11.9164 14.5617 12.5016C13.3539 13.1602 11.7336 13.5234 10 13.5234C8.26641 13.5234 6.64609 13.1602 5.43828 12.5016C4.36563 11.9164 3.75 11.15 3.75 10.3984V9.09844C5.08281 10.2703 7.36172 11.0234 10 11.0234C12.6383 11.0234 14.9172 10.2672 16.25 9.09844V10.3984ZM5.43828 4.54531C6.64609 3.88672 8.26641 3.52344 10 3.52344C11.7336 3.52344 13.3539 3.88672 14.5617 4.54531C15.6344 5.13047 16.25 5.89687 16.25 6.64844C16.25 7.4 15.6344 8.16641 14.5617 8.75156C13.3539 9.41016 11.7336 9.77344 10 9.77344C8.26641 9.77344 6.64609 9.41016 5.43828 8.75156C4.36563 8.16641 3.75 7.4 3.75 6.64844C3.75 5.89687 4.36563 5.13047 5.43828 4.54531ZM14.5617 16.2516C13.3539 16.9102 11.7336 17.2734 10 17.2734C8.26641 17.2734 6.64609 16.9102 5.43828 16.2516C4.36563 15.6664 3.75 14.9 3.75 14.1484V12.8484C5.08281 14.0203 7.36172 14.7734 10 14.7734C12.6383 14.7734 14.9172 14.0172 16.25 12.8484V14.1484C16.25 14.9 15.6344 15.6664 14.5617 16.2516Z" fill="currentColor"/>
  </symbol>
</svg>

