<svg xmlns="http://www.w3.org/2000/svg">
  <symbol id="icon" fill="none" viewBox="0 0 20 20" width="20" height="20">
    <path d="M16.6665 8.83348C16.6665 8.61247 16.5787 8.40051 16.4224 8.24423C16.2661 8.08794 16.0542 8.00015 15.8332 8.00015C15.6121 8.00015 15.4002 8.08794 15.2439 8.24423C15.0876 8.40051 14.9998 8.61247 14.9998 8.83348H16.6665ZM4.99982 8.83348C4.99982 8.61247 4.91203 8.40051 4.75575 8.24423C4.59947 8.08794 4.3875 8.00015 4.16649 8.00015C3.94548 8.00015 3.73351 8.08794 3.57723 8.24423C3.42095 8.40051 3.33316 8.61247 3.33316 8.83348H4.99982ZM16.9107 11.0893C17.0678 11.2411 17.2783 11.3251 17.4968 11.3232C17.7153 11.3213 17.9243 11.2337 18.0788 11.0792C18.2333 10.9247 18.321 10.7156 18.3229 10.4971C18.3248 10.2787 18.2408 10.0681 18.089 9.91098L16.9107 11.0893ZM9.99982 3.00015L10.589 2.41098C10.4327 2.25475 10.2208 2.16699 9.99982 2.16699C9.77885 2.16699 9.56693 2.25475 9.41066 2.41098L9.99982 3.00015ZM1.91066 9.91098C1.83106 9.98785 1.76758 10.0798 1.72391 10.1815C1.68023 10.2831 1.65724 10.3925 1.65628 10.5031C1.65532 10.6138 1.6764 10.7235 1.71831 10.8259C1.76021 10.9284 1.82208 11.0214 1.90033 11.0996C1.97857 11.1779 2.07161 11.2398 2.17403 11.2817C2.27644 11.3236 2.38618 11.3447 2.49682 11.3437C2.60747 11.3427 2.71682 11.3197 2.81849 11.2761C2.92016 11.2324 3.01212 11.1689 3.08899 11.0893L1.91066 9.91098ZM5.83316 18.8335H14.1665V17.1668H5.83316V18.8335ZM16.6665 16.3335V8.83348H14.9998V16.3335H16.6665ZM4.99982 16.3335V8.83348H3.33316V16.3335H4.99982ZM18.089 9.91098L10.589 2.41098L9.41066 3.58931L16.9107 11.0893L18.089 9.91098ZM9.41066 2.41098L1.91066 9.91098L3.08899 11.0893L10.589 3.58931L9.41066 2.41098ZM14.1665 18.8335C14.8295 18.8335 15.4654 18.5701 15.9343 18.1012C16.4031 17.6324 16.6665 16.9965 16.6665 16.3335H14.9998C14.9998 16.5545 14.912 16.7665 14.7557 16.9227C14.5995 17.079 14.3875 17.1668 14.1665 17.1668V18.8335ZM5.83316 17.1668C5.61214 17.1668 5.40018 17.079 5.2439 16.9227C5.08762 16.7665 4.99982 16.5545 4.99982 16.3335H3.33316C3.33316 16.9965 3.59655 17.6324 4.06539 18.1012C4.53423 18.5701 5.17012 18.8335 5.83316 18.8335V17.1668Z" fill="currentColor"/>
  </symbol>
</svg>
