<svg xmlns="http://www.w3.org/2000/svg">
  <symbol id="icon" width="20" height="20" viewBox="0 0 20 20" fill="none">
    <path d="M15.8333 5.50065H14.1667C14.1667 3.16732 12.3333 1.33398 10 1.33398C7.66667 1.33398 5.83333 3.16732 5.83333 5.50065H4.16667C3.25 5.50065 2.5 6.25065 2.5 7.16732V17.1673C2.5 18.084 3.25 18.834 4.16667 18.834H15.8333C16.75 18.834 17.5 18.084 17.5 17.1673V7.16732C17.5 6.25065 16.75 5.50065 15.8333 5.50065ZM10 3.00065C11.4167 3.00065 12.5 4.08398 12.5 5.50065H7.5C7.5 4.08398 8.58333 3.00065 10 3.00065ZM15.8333 17.1673H4.16667V7.16732H15.8333V17.1673ZM10 10.5007C8.58333 10.5007 7.5 9.41732 7.5 8.00065H5.83333C5.83333 10.334 7.66667 12.1673 10 12.1673C12.3333 12.1673 14.1667 10.334 14.1667 8.00065H12.5C12.5 9.41732 11.4167 10.5007 10 10.5007Z" fill="currentColor"/>
  </symbol>
</svg>
