<svg xmlns="http://www.w3.org/2000/svg">
  <symbol id="icon" width="20" height="20" viewBox="0 0 20 20" fill="none">
    <path d="M11.6654 10.5007H16.6654M11.6654 13.834H16.6654M11.6654 17.1673H16.6654M3.33203 4.66732C3.33203 4.4463 3.41983 4.23434 3.57611 4.07806C3.73239 3.92178 3.94435 3.83398 4.16536 3.83398H15.832C16.053 3.83398 16.265 3.92178 16.4213 4.07806C16.5776 4.23434 16.6654 4.4463 16.6654 4.66732V6.33398C16.6654 6.555 16.5776 6.76696 16.4213 6.92324C16.265 7.07952 16.053 7.16732 15.832 7.16732H4.16536C3.94435 7.16732 3.73239 7.07952 3.57611 6.92324C3.41983 6.76696 3.33203 6.555 3.33203 6.33398V4.66732ZM3.33203 11.334C3.33203 11.113 3.41983 10.901 3.57611 10.7447C3.73239 10.5884 3.94435 10.5007 4.16536 10.5007H7.4987C7.71971 10.5007 7.93167 10.5884 8.08795 10.7447C8.24423 10.901 8.33203 11.113 8.33203 11.334V16.334C8.33203 16.555 8.24423 16.767 8.08795 16.9232C7.93167 17.0795 7.71971 17.1673 7.4987 17.1673H4.16536C3.94435 17.1673 3.73239 17.0795 3.57611 16.9232C3.41983 16.767 3.33203 16.555 3.33203 16.334V11.334Z" stroke="currentColor" stroke-width="1.6" stroke-linecap="round" stroke-linejoin="round"/>
  </symbol>
</svg>