<svg xmlns="http://www.w3.org/2000/svg">
  <symbol id="icon" width="20" height="20" viewBox="0 0 20 20" fill="none">
    <path d="M11.4094 13.648L10.8844 13.2396C10.8959 13.1601 10.9023 13.08 10.9036 12.9996C10.9045 12.9189 10.8978 12.8383 10.8836 12.7588L11.4044 12.3505C11.4265 12.3317 11.4415 12.3059 11.447 12.2774C11.4524 12.2489 11.448 12.2194 11.4344 12.1938L10.9428 11.3438C10.9279 11.3182 10.9044 11.2986 10.8765 11.2887C10.8485 11.2788 10.818 11.2791 10.7903 11.2896L10.1819 11.5355C10.0548 11.4355 9.91392 11.3544 9.76361 11.2946L9.67028 10.6463C9.66698 10.6176 9.65313 10.5911 9.63142 10.572C9.60971 10.5529 9.58169 10.5426 9.55278 10.543H8.56944C8.5402 10.5433 8.51197 10.5538 8.48962 10.5726C8.46726 10.5915 8.45217 10.6175 8.44694 10.6463L8.35361 11.2946C8.20533 11.3578 8.06538 11.439 7.93694 11.5363L7.32694 11.2896C7.29917 11.2798 7.26885 11.2798 7.24108 11.2897C7.21331 11.2995 7.18978 11.3186 7.17444 11.3438L6.68278 12.1938C6.66784 12.2192 6.66265 12.2492 6.66816 12.2782C6.67368 12.3072 6.68954 12.3332 6.71278 12.3513L7.23361 12.7596C7.21399 12.9193 7.21399 13.0808 7.23361 13.2405L6.71278 13.6488C6.69084 13.6677 6.676 13.6936 6.6707 13.722C6.6654 13.7505 6.66995 13.7799 6.68361 13.8055L7.17528 14.6555C7.19012 14.6809 7.21347 14.7003 7.24123 14.7102C7.26898 14.7202 7.29933 14.7199 7.32694 14.7096L7.93611 14.4638C8.06298 14.5637 8.20359 14.6449 8.35361 14.7046L8.44694 15.353C8.45157 15.3822 8.4666 15.4087 8.48927 15.4277C8.51194 15.4467 8.54071 15.4569 8.57028 15.4563H9.55278C9.58202 15.456 9.61025 15.4455 9.6326 15.4267C9.65496 15.4078 9.67005 15.3818 9.67528 15.353L9.76861 14.7046C9.91617 14.6426 10.0549 14.5614 10.1811 14.463L10.7953 14.7096C10.8231 14.7195 10.8534 14.7195 10.8811 14.7096C10.9089 14.6998 10.9324 14.6806 10.9478 14.6555L11.4394 13.8055C11.4532 13.7798 11.4578 13.7501 11.4523 13.7214C11.4468 13.6928 11.4317 13.6668 11.4094 13.648ZM9.06111 13.7363C8.91545 13.7361 8.7731 13.6928 8.65207 13.6118C8.53103 13.5307 8.43674 13.4156 8.38111 13.281C8.32549 13.1464 8.31102 12.9983 8.33953 12.8554C8.36805 12.7126 8.43828 12.5814 8.54134 12.4785C8.64439 12.3755 8.77566 12.3054 8.91853 12.2771C9.06141 12.2487 9.20949 12.2634 9.34405 12.3191C9.47861 12.3749 9.59361 12.4693 9.67452 12.5905C9.75543 12.7116 9.79861 12.854 9.79861 12.9996C9.79872 13.0965 9.77971 13.1924 9.74268 13.2819C9.70565 13.3714 9.65131 13.4526 9.5828 13.5211C9.51428 13.5895 9.43293 13.6438 9.34341 13.6807C9.25388 13.7176 9.15795 13.7365 9.06111 13.7363Z" fill="currentColor"/>
    <path d="M11.6673 2.16602H5.00065C4.55903 2.16733 4.13587 2.34335 3.8236 2.65563C3.51132 2.9679 3.3353 3.39106 3.33398 3.83268V17.166C3.3353 17.6076 3.51132 18.0308 3.8236 18.3431C4.13587 18.6553 4.55903 18.8314 5.00065 18.8327H15.0007C15.4423 18.8314 15.8654 18.6553 16.1777 18.3431C16.49 18.0308 16.666 17.6076 16.6673 17.166V7.16602L11.6673 2.16602ZM15.0007 17.166H5.00065V3.83268H10.834V7.99935H15.0007V17.166Z" fill="currentColor"/>
  </symbol>
</svg>
