<svg xmlns="http://www.w3.org/2000/svg">
  <symbol id="icon" width="20" height="20" viewBox="0 0 20 20" fill="none">
    <path fill-rule="evenodd" clip-rule="evenodd" d="M9.99975 6.01289C11.7335 4.23164 16.0673 7.35039 9.99975 11.3591C3.93225 7.35039 8.266 4.23289 9.99975 6.01539V6.01289Z" fill="currentColor"/>
    <path d="M2.5 3C2.5 2.33696 2.76339 1.70107 3.23223 1.23223C3.70107 0.763392 4.33696 0.5 5 0.5L15 0.5C15.663 0.5 16.2989 0.763392 16.7678 1.23223C17.2366 1.70107 17.5 2.33696 17.5 3V19.875C17.4999 19.9881 17.4692 20.099 17.4111 20.1959C17.353 20.2929 17.2697 20.3723 17.17 20.4257C17.0703 20.479 16.9581 20.5044 16.8451 20.499C16.7322 20.4936 16.6229 20.4576 16.5287 20.395L10 16.8762L3.47125 20.395C3.37713 20.4576 3.26779 20.4936 3.15486 20.499C3.04194 20.5044 2.92967 20.479 2.83 20.4257C2.73033 20.3723 2.64701 20.2929 2.58889 20.1959C2.53078 20.099 2.50006 19.9881 2.5 19.875V3ZM5 1.75C4.66848 1.75 4.35054 1.8817 4.11612 2.11612C3.8817 2.35054 3.75 2.66848 3.75 3V18.7075L9.65375 15.605C9.75633 15.5367 9.87679 15.5003 10 15.5003C10.1232 15.5003 10.2437 15.5367 10.3463 15.605L16.25 18.7075V3C16.25 2.66848 16.1183 2.35054 15.8839 2.11612C15.6495 1.8817 15.3315 1.75 15 1.75H5Z" fill="currentColor"/>
  </symbol>
</svg>