<svg xmlns="http://www.w3.org/2000/svg">
  <symbol id="icon" viewBox="0 0 20 20" fill="none">
    <path d="M5.83203 14.6667C5.3737 14.6667 4.9812 14.5033 4.65453 14.1767C4.32787 13.85 4.16481 13.4578 4.16537 13V4.66667C4.16537 4.20833 4.3287 3.81583 4.65537 3.48917C4.98203 3.1625 5.37426 2.99945 5.83203 3H17.4987C17.957 3 18.3495 3.16333 18.6762 3.49C19.0029 3.81667 19.1659 4.20889 19.1654 4.66667V13C19.1654 13.4583 19.002 13.8508 18.6754 14.1775C18.3487 14.5042 17.9565 14.6672 17.4987 14.6667H5.83203ZM11.6654 10.75L5.83203 6.6875V13H17.4987V6.6875L11.6654 10.75ZM11.6654 8.70834L17.4987 4.66667H5.83203L11.6654 8.70834ZM2.4987 18C2.04037 18 1.64787 17.8367 1.3212 17.51C0.994533 17.1833 0.831477 16.7911 0.832033 16.3333V5.91667H2.4987V16.3333H16.2487V18H2.4987Z" fill="currentColor"/>
  </symbol>
</svg>
