<svg xmlns="http://www.w3.org/2000/svg">
  <symbol id="icon" viewBox="0 0 16 16" fill="none">
    <path d="M6.99935 1.16602C10.2211 1.16602 12.8327 3.7776 12.8327 6.99935C12.8327 10.2211 10.2211 12.8327 6.99935 12.8327C3.7776 12.8327 1.16602 10.2211 1.16602 6.99935C1.16602 3.7776 3.7776 1.16602 6.99935 1.16602ZM6.99935 2.33268C5.76167 2.33268 4.57469 2.82435 3.69952 3.69952C2.82435 4.57469 2.33268 5.76167 2.33268 6.99935C2.33268 8.23703 2.82435 9.42401 3.69952 10.2992C4.57469 11.1743 5.76167 11.666 6.99935 11.666C8.23703 11.666 9.42401 11.1743 10.2992 10.2992C11.1743 9.42401 11.666 8.23703 11.666 6.99935C11.666 5.76167 11.1743 4.57469 10.2992 3.69952C9.42401 2.82435 8.23703 2.33268 6.99935 2.33268ZM6.99352 5.83268C7.31902 5.83268 7.58268 6.09635 7.58268 6.42185V9.41085C7.69388 9.47506 7.78079 9.57416 7.82993 9.6928C7.87906 9.81143 7.88768 9.94296 7.85445 10.067C7.82121 10.191 7.74798 10.3006 7.64611 10.3788C7.54424 10.457 7.41942 10.4993 7.29102 10.4993H7.00518C6.92781 10.4993 6.8512 10.4841 6.77972 10.4545C6.70824 10.4249 6.64329 10.3815 6.58858 10.3268C6.53387 10.2721 6.49047 10.2071 6.46086 10.1356C6.43125 10.0642 6.41602 9.98755 6.41602 9.91018V6.99935C6.26131 6.99935 6.11293 6.93789 6.00354 6.82849C5.89414 6.7191 5.83268 6.57072 5.83268 6.41602C5.83268 6.26131 5.89414 6.11293 6.00354 6.00354C6.11293 5.89414 6.26131 5.83268 6.41602 5.83268H6.99352ZM6.99935 4.08268C7.15406 4.08268 7.30243 4.14414 7.41183 4.25354C7.52122 4.36293 7.58268 4.51131 7.58268 4.66602C7.58268 4.82073 7.52122 4.9691 7.41183 5.07849C7.30243 5.18789 7.15406 5.24935 6.99935 5.24935C6.84464 5.24935 6.69627 5.18789 6.58687 5.07849C6.47747 4.9691 6.41602 4.82073 6.41602 4.66602C6.41602 4.51131 6.47747 4.36293 6.58687 4.25354C6.69627 4.14414 6.84464 4.08268 6.99935 4.08268Z" fill="currentColor"/>
  </symbol>
</svg>