<svg xmlns="http://www.w3.org/2000/svg">
  <symbol id="icon" viewBox="0 0 17 18" fill="none">  
    <path d="M14.875 5.45833V13.9583C14.875 14.3479 14.7362 14.6815 14.4585 14.9592C14.1808 15.2369 13.8474 15.3755 13.4583 15.375H3.54167C3.15208 15.375 2.81846 15.2362 2.54079 14.9585C2.26313 14.6808 2.12453 14.3474 2.125 13.9583V4.04167C2.125 3.65208 2.26383 3.31846 2.5415 3.04079C2.81917 2.76313 3.15256 2.62453 3.54167 2.625H12.0417L14.875 5.45833ZM13.4583 6.06042L11.4396 4.04167H3.54167V13.9583H13.4583V6.06042ZM8.5 13.25C9.09028 13.25 9.59202 13.0434 10.0052 12.6302C10.4184 12.217 10.625 11.7153 10.625 11.125C10.625 10.5347 10.4184 10.033 10.0052 9.61979C9.59202 9.2066 9.09028 9 8.5 9C7.90972 9 7.40799 9.2066 6.99479 9.61979C6.5816 10.033 6.375 10.5347 6.375 11.125C6.375 11.7153 6.5816 12.217 6.99479 12.6302C7.40799 13.0434 7.90972 13.25 8.5 13.25ZM4.25 7.58333H10.625V4.75H4.25V7.58333ZM3.54167 6.06042V13.9583V4.04167V6.06042Z" fill="currentColor"/>
  </symbol>
</svg>