<svg xmlns="http://www.w3.org/2000/svg">
  <symbol id="icon" width="16" height="16" viewBox="0 0 16 16" fill="none">
    <path d="M8.2 0.5C6.29044 0.5 4.45909 1.25857 3.10883 2.60883C1.75857 3.95909 1 5.79044 1 7.7C1 9.60956 1.75857 11.4409 3.10883 12.7912C4.45909 14.1414 6.29044 14.9 8.2 14.9C10.1096 14.9 11.9409 14.1414 13.2912 12.7912C14.6414 11.4409 15.4 9.60956 15.4 7.7C15.4 5.79044 14.6414 3.95909 13.2912 2.60883C11.9409 1.25857 10.1096 0.5 8.2 0.5ZM1.888 8.244H3.896C3.928 8.972 4.0296 9.6952 4.2 10.404H2.472C2.14976 9.7247 1.95197 8.99312 1.888 8.244ZM8.744 3.924V1.452C9.51495 1.74498 10.1484 2.3157 10.52 3.052C10.684 3.3296 10.8288 3.6184 10.952 3.916L8.744 3.924ZM11.32 5.004C11.5056 5.7104 11.616 6.4344 11.648 7.164H8.744V5.004H11.32ZM7.656 1.452V3.924H5.448C5.57141 3.62616 5.71577 3.33743 5.88 3.06C6.24997 2.32068 6.88367 1.74693 7.656 1.452ZM7.656 5.004V7.164H4.76C4.792 6.4344 4.9024 5.7104 5.088 5.004H7.656ZM3.896 7.156H1.888C1.95197 6.40688 2.14976 5.6753 2.472 4.996H4.2C4.02927 5.70452 3.92747 6.42788 3.896 7.156ZM4.76 8.244H7.656V10.404H5.088C4.90243 9.69766 4.79248 8.97359 4.76 8.244ZM7.664 11.444V13.916C6.89305 13.623 6.25956 13.0523 5.888 12.316C5.72377 12.0386 5.57941 11.7498 5.456 11.452L7.664 11.444ZM8.744 13.916V11.484H10.952C10.8286 11.7818 10.6842 12.0706 10.52 12.348C10.1484 13.0843 9.51495 13.655 8.744 13.948V13.916ZM8.744 10.364V8.204H11.64C11.6075 8.93359 11.4976 9.65766 11.312 10.364H8.744ZM12.512 8.204H14.52C14.456 8.95312 14.2582 9.6847 13.936 10.364H12.2C12.368 9.668 12.4696 8.9584 12.504 8.244L12.512 8.204ZM12.512 7.124C12.4754 6.40905 12.3709 5.69919 12.2 5.004H13.928C14.2504 5.684 14.448 6.4152 14.512 7.164L12.512 7.124ZM13.312 3.924H11.88C11.6209 3.19624 11.2453 2.51538 10.768 1.908C11.7635 2.35486 12.6282 3.04884 13.28 3.924H13.312ZM5.632 1.908C5.15466 2.51538 4.7791 3.19624 4.52 3.924H3.12C3.77178 3.04884 4.63649 2.35486 5.632 1.908ZM3.112 11.508H4.52C4.7791 12.2358 5.15466 12.9166 5.632 13.524C4.63374 13.0704 3.76876 12.368 3.12 11.484L3.112 11.508ZM10.76 13.524C11.2373 12.9166 11.6129 12.2358 11.872 11.508H13.28C12.6242 12.3714 11.7599 13.0541 10.768 13.492L10.76 13.524Z" fill="currentColor"/>
  </symbol>
</svg>