<svg xmlns="http://www.w3.org/2000/svg">
  <symbol id="icon" width="20" height="20" viewBox="0 0 20 20" fill="none">  
    <path d="M17.5588 6.11765C16.5841 6.11648 15.6497 5.72876 14.9605 5.03954C14.2712 4.35033 13.8835 3.41588 13.8824 2.44118C13.8824 2.32417 13.8359 2.21195 13.7531 2.12922C13.6704 2.04648 13.5582 2 13.4412 2H10.5C10.383 2 10.2708 2.04648 10.188 2.12922C10.1053 2.21195 10.0588 2.32417 10.0588 2.44118V12.1471C10.0586 12.4365 9.98081 12.7206 9.83344 12.9697C9.68606 13.2188 9.47455 13.4238 9.22095 13.5634C8.96736 13.7029 8.68097 13.7718 8.39166 13.763C8.10235 13.7541 7.82072 13.6678 7.57614 13.513C7.33155 13.3582 7.13298 13.1406 7.00113 12.883C6.86927 12.6253 6.80897 12.337 6.8265 12.0481C6.84403 11.7592 6.93877 11.4802 7.10081 11.2404C7.26286 11.0006 7.48629 10.8086 7.74779 10.6846C7.82323 10.6488 7.88698 10.5924 7.93162 10.5218C7.97626 10.4513 7.99998 10.3695 8 10.286V7.14706C7.99994 7.08294 7.98589 7.0196 7.95885 6.96146C7.93181 6.90332 7.89243 6.85177 7.84343 6.81041C7.79444 6.76904 7.73701 6.73885 7.67516 6.72194C7.61331 6.70504 7.54852 6.70181 7.48529 6.7125C4.92647 7.16765 3 9.50368 3 12.1471C3 13.5901 3.57327 14.9741 4.59368 15.9946C5.6141 17.015 6.99809 17.5882 8.44118 17.5882C9.88427 17.5882 11.2683 17.015 12.2887 15.9946C13.3091 14.9741 13.8824 13.5901 13.8824 12.1471V8.98015C15.0041 9.61303 16.2708 9.94415 17.5588 9.94118C17.6758 9.94118 17.788 9.89469 17.8708 9.81196C17.9535 9.72922 18 9.61701 18 9.5V6.55882C18 6.44182 17.9535 6.3296 17.8708 6.24686C17.788 6.16413 17.6758 6.11765 17.5588 6.11765ZM17.1176 9.04412C15.8851 8.9654 14.6998 8.53999 13.6985 7.81691C13.6325 7.76951 13.5547 7.74126 13.4737 7.73527C13.3926 7.72928 13.3115 7.7458 13.2393 7.78299C13.167 7.82018 13.1064 7.8766 13.0642 7.94603C13.022 8.01547 12.9998 8.09521 13 8.17647V12.1471C13 13.3561 12.5197 14.5157 11.6648 15.3706C10.8098 16.2256 9.65025 16.7059 8.44118 16.7059C7.2321 16.7059 6.07255 16.2256 5.2176 15.3706C4.36266 14.5157 3.88235 13.3561 3.88235 12.1471C3.88235 10.1088 5.24044 8.28824 7.11765 7.70735V10.0257C6.74845 10.2561 6.44579 10.5789 6.23959 10.9622C6.0334 11.3454 5.93082 11.7758 5.942 12.2109C5.95318 12.6459 6.07773 13.0705 6.30333 13.4426C6.52893 13.8148 6.84777 14.1216 7.22832 14.3327C7.60886 14.5439 8.03793 14.652 8.47308 14.6464C8.90824 14.6409 9.3344 14.5218 9.70943 14.3011C10.0845 14.0803 10.3954 13.7654 10.6114 13.3877C10.8274 13.0099 10.9411 12.5822 10.9412 12.1471V2.88235H13.0213C13.1248 3.93362 13.5896 4.91649 14.3366 5.66344C15.0835 6.41039 16.0664 6.87521 17.1176 6.97868V9.04412Z" fill="currentColor"/>
  </symbol>
</svg>